<svg width="62" height="62" viewBox="0 0 62 62" fill="none" xmlns="http://www.w3.org/2000/svg">
<g filter="url(#filter0_dii_552_25346)">
<rect x="3" y="2" width="56" height="56" rx="28" fill="#FF1800"/>
<rect x="3.58333" y="2.58333" width="54.8333" height="54.8333" rx="27.4167" stroke="#FF919A" stroke-width="1.16667"/>
<path fill-rule="evenodd" clip-rule="evenodd" d="M30.9919 21.9918C28.6594 19.2648 24.7696 18.5312 21.8471 21.0283C18.9245 23.5254 18.513 27.7005 20.8081 30.6538C22.7164 33.1093 28.4913 38.2881 30.384 39.9643C30.5958 40.1518 30.7017 40.2456 30.8252 40.2824C30.933 40.3146 31.0509 40.3146 31.1587 40.2824C31.2822 40.2456 31.3881 40.1518 31.5998 39.9643C33.4925 38.2881 39.2675 33.1093 41.1757 30.6538C43.4708 27.7005 43.1096 23.4992 40.1368 21.0283C37.164 18.5575 33.3245 19.2648 30.9919 21.9918Z" stroke="white" stroke-width="2.33333" stroke-linecap="round" stroke-linejoin="round"/>
</g>
<defs>
<filter id="filter0_dii_552_25346" x="0.666667" y="0.833333" width="60.6667" height="60.6667" filterUnits="userSpaceOnUse" color-interpolation-filters="sRGB">
<feFlood flood-opacity="0" result="BackgroundImageFix"/>
<feColorMatrix in="SourceAlpha" type="matrix" values="0 0 0 0 0 0 0 0 0 0 0 0 0 0 0 0 0 0 127 0" result="hardAlpha"/>
<feOffset dy="1.16667"/>
<feGaussianBlur stdDeviation="1.16667"/>
<feColorMatrix type="matrix" values="0 0 0 0 0.0392157 0 0 0 0 0.0496732 0 0 0 0 0.0705882 0 0 0 0.05 0"/>
<feBlend mode="normal" in2="BackgroundImageFix" result="effect1_dropShadow_552_25346"/>
<feBlend mode="normal" in="SourceGraphic" in2="effect1_dropShadow_552_25346" result="shape"/>
<feColorMatrix in="SourceAlpha" type="matrix" values="0 0 0 0 0 0 0 0 0 0 0 0 0 0 0 0 0 0 127 0" result="hardAlpha"/>
<feOffset dy="-2.33333"/>
<feComposite in2="hardAlpha" operator="arithmetic" k2="-1" k3="1"/>
<feColorMatrix type="matrix" values="0 0 0 0 0.0392157 0 0 0 0 0.0496732 0 0 0 0 0.0705882 0 0 0 0.05 0"/>
<feBlend mode="normal" in2="shape" result="effect2_innerShadow_552_25346"/>
<feColorMatrix in="SourceAlpha" type="matrix" values="0 0 0 0 0 0 0 0 0 0 0 0 0 0 0 0 0 0 127 0" result="hardAlpha"/>
<feMorphology radius="1.16667" operator="erode" in="SourceAlpha" result="effect3_innerShadow_552_25346"/>
<feOffset/>
<feComposite in2="hardAlpha" operator="arithmetic" k2="-1" k3="1"/>
<feColorMatrix type="matrix" values="0 0 0 0 0.0392157 0 0 0 0 0.0496732 0 0 0 0 0.0705882 0 0 0 0.18 0"/>
<feBlend mode="normal" in2="effect2_innerShadow_552_25346" result="effect3_innerShadow_552_25346"/>
</filter>
</defs>
</svg>
